<?xml version="1.0" encoding="UTF-8"?>
<svg width="32px" height="32px" viewBox="0 0 32 32" version="1.1" xmlns="http://www.w3.org/2000/svg" xmlns:xlink="http://www.w3.org/1999/xlink">
    <!-- Generator: Sketch 52.5 (67469) - http://www.bohemiancoding.com/sketch -->
    <title>Favicon</title>
    <desc>Created with Sketch.</desc>
    <g id="Favicon" stroke="none" stroke-width="1" fill="none" fill-rule="evenodd">
        <rect fill="#000000" x="0" y="0" width="32" height="32"></rect>
        <path d="M11.7387496,18.0067849 L14.2055499,15.9506609 C16.0405031,14.412747 17.832179,12.8079674 19.7277203,11.3452775 C20.8279915,10.4850746 21.670595,9.35690092 22.1685542,8.07721057 C22.6792252,6.85690934 23.2331733,6.71481948 24.3843467,7.44198527 C26.6001393,8.85452573 26.6953491,9.23064597 25.8557715,11.621099 C24.9123286,14.3291648 24.0467846,17.0623052 23.1466189,19.7870874 C23.1033417,19.920819 23.0860308,20.0712671 23.0081319,20.4306709 L25.847116,17.4300672 L34.4592783,8.23601689 C35.7749051,6.83183466 36.8914568,6.7231777 38.6744773,7.53392578 C40.2342944,8.13241072 41.1825279,9.66882057 40.9854797,11.2784117 C40.872959,15.1231964 40.8643035,18.9679811 40.8383372,22.8127657 C40.8826784,23.7136635 40.3693141,24.5541171 39.5313659,24.952472 C38.7523763,25.3620251 37.9906976,25.7882947 37.229019,26.2145643 C36.5569582,26.6093479 35.7294449,26.6684252 35.004571,26.3733707 C31.9751672,25.2700846 32.9012992,24.9357555 33.074408,21.6760468 C33.1176852,20.840224 32.208864,20.4306709 33.074408,20.7399253 C33.9399519,21.0491797 34.5458327,21.3333594 35.4027212,21.6760468 L35.4027212,10.810351 C35.2382679,10.9607991 35.0738145,11.0861725 34.9353275,11.2449788 L22.2464532,25.1196365 C21.0520025,26.42352 20.5153653,26.5071023 19.052596,25.5375479 C18.5678914,25.211577 18.0918422,24.8856062 17.6244485,24.5429188 C16.9320639,24.1281634 16.6329148,23.303298 16.906047,22.5620189 C17.338819,21.2330607 17.771591,19.920819 18.264951,18.6085773 C18.3792676,18.3440171 18.4352745,18.0593661 18.4294044,17.7727545 L15.5125213,20.3805215 L9.63547784,25.6462049 C8.83052197,26.3650124 8.60548054,26.3817289 7.67934852,25.7882947 C7.12540039,25.4288909 6.57145226,25.0694872 6.01750413,24.7017251 C4.95288507,23.999634 4.79708716,23.6067973 5.21254826,22.419929 C6.24254556,19.4611165 7.29850918,16.5190204 8.33716192,13.5602078 C8.57951422,12.8831914 9.09018515,12.1058762 8.91707636,11.5375168 C8.74396757,10.9691573 7.83514643,10.701694 7.25523198,10.3004991 C7.08212319,10.1834839 6.90035896,10.0664687 6.72725017,9.94109531 C6.28582276,9.61512443 6.23389012,9.20557128 6.72725017,8.92974977 C7.84164783,8.24211745 8.99778567,7.61970316 10.189426,7.06586503 C10.6756817,6.95788132 11.1862679,7.03258641 11.6175735,7.27482072 C12.2770932,7.656453 12.9050443,8.08679314 13.4958039,8.56198776 C13.9110599,8.7359287 14.2287682,9.07395666 14.3679236,9.48988549 C14.5070789,9.90581431 14.4542334,10.3594488 14.2228608,10.7351269 C13.4525267,12.8748332 12.6648817,15.0145394 11.8858921,17.1542457 C11.7906823,17.4133507 11.7041279,17.6724558 11.608918,17.9315608 L11.7387496,18.0067849 Z" id="Shape" fill="#FFFFFF" fill-rule="nonzero"></path>
    </g>
</svg>