<?xml version="1.0" encoding="UTF-8"?>
<svg width="533px" height="152px" viewBox="0 0 533 152" version="1.1" xmlns="http://www.w3.org/2000/svg" xmlns:xlink="http://www.w3.org/1999/xlink">
    <!-- Generator: Sketch 52.5 (67469) - http://www.bohemiancoding.com/sketch -->
    <title>svg</title>
    <desc>Created with Sketch.</desc>
    <g id="General" stroke="none" stroke-width="1" fill="none" fill-rule="evenodd">
        <g id="SVG" transform="translate(-71.000000, -43.000000)" fill="#F32D94" fill-rule="nonzero">
            <g id="svg" transform="translate(71.000000, 43.000000)">
                <path d="M257.505798,25.2279111 L261.957051,27.8106895 C268.562136,31.5891986 269.950162,34.6980986 267.65274,42.1594584 C263.919431,54.1167659 260.042533,66.0740734 256.213498,77.9835516 L245.922967,109.981306 C245.434497,111.329697 245.33499,112.788112 245.635789,114.190279 C246.497322,113.377182 247.406718,112.611914 248.220388,111.703159 C267.365563,90.4350944 286.367149,69.1510871 305.225147,47.8511368 C314.414831,37.5200231 317.382333,37.0895601 328.58226,45.1726999 C330.139651,46.2914262 331.626245,47.5054217 333.033514,48.8077214 C336.934762,51.9884074 338.344973,57.3164096 336.527508,62.0085888 C332.507021,73.8702378 328.677986,85.9232037 324.801088,97.7370235 C324.370322,99.1240712 323.987418,100.511119 323.221611,103.046068 L350.599212,77.5052593 C357.922241,70.6656794 365.340997,63.8260996 372.5683,56.843032 C374.724923,54.6802707 376.620462,52.2723846 378.216127,49.6686475 C378.787667,48.0141245 380.113103,46.7302063 381.785771,46.2108167 C383.458439,45.6914271 385.278624,45.9985812 386.687867,47.0380399 C390.643922,49.3433698 394.405609,51.9666982 397.935657,54.8820336 C401.074146,57.3766829 402.21923,61.6240876 400.759571,65.3566349 C397.074124,77.026967 393.340815,88.6494698 389.655369,100.319802 C389.272466,101.515533 389.033151,102.711263 388.410933,105.102725 L425.648298,66.0262441 C431.966206,59.3779812 438.236251,52.681889 444.793474,46.1292845 C447.732821,42.3172918 452.141745,39.9173007 456.940806,39.5169022 C461.739868,39.1165037 466.486014,40.752663 470.017242,44.0247984 C472.60184,45.9857968 475.282165,47.8511368 477.723175,50.0034521 C480.348213,51.8843623 482.116277,54.7318793 482.637109,57.9174821 C483.15794,61.1030849 482.388717,64.3648528 480.499225,66.9828287 C475.234302,76.5486747 469.682201,86.1145207 465.087359,96.3978051 C462.747981,102.447567 460.938356,108.688777 459.678847,115.051205 C459.360821,116.790546 459.360821,118.573079 459.678847,120.31242 C459.581651,123.987566 461.501532,127.422124 464.684086,129.266506 C467.866641,131.110889 471.803279,131.070353 474.947124,129.160828 C483.64996,124.861037 490.794154,117.955946 495.384599,109.407356 C502.766788,97.7281206 507.049604,84.3619738 507.828963,70.570021 C508.195569,67.8875129 506.86111,65.2585763 504.478557,63.9695872 C500.9367,61.8172719 497.586294,59.1866643 494.188025,57.0343489 C491.938467,55.4559843 491.364112,52.9210351 493.709396,51.5339875 C500.042938,47.5893932 506.704523,44.1969381 513.620378,41.3941908 C518.933157,39.4438329 524.86198,41.8178206 527.357041,46.8945522 C530.168146,51.0289205 532.031268,55.7324391 532.813416,60.6693704 C534.488619,91.6148821 524.963894,118.44708 500.984563,138.822332 C489.301107,149.328137 473.172109,153.375456 457.907918,149.631738 C444.703707,146.208722 435.296123,134.554641 434.742257,120.9342 C434.235511,106.083051 437.811129,91.3770979 445.080651,78.4140147 L447.569524,73.6310917 C447.718176,73.0347969 447.814269,72.4266354 447.856702,71.8135809 C446.03791,73.5832624 444.745611,74.731164 443.549037,76.0225532 L380.513548,143.94006 C374.578544,150.301347 372.041808,150.636152 364.958093,145.853229 C362.277769,144.035718 359.613398,142.170378 356.964983,140.257209 C353.461869,138.216103 352.059049,133.866301 353.710303,130.165241 C357.587201,120.121103 361.559825,110.124794 365.484585,100.080656 C366.248655,98.4169601 366.625051,96.6017193 366.585433,94.7716113 L350.647075,109.837819 C338.202711,121.635695 325.774301,133.449515 313.361846,145.279278 C308.192649,150.062201 306.230268,150.062201 300.199538,146.235863 L292.110702,140.735501 C287.324408,137.435284 286.271423,135.522115 288.090215,129.878266 C293.498727,112.994548 299.194417,96.3978051 304.746517,79.4184285 L309.532811,64.4000503 L308.288375,63.3956365 C307.717177,64.4971522 307.06107,65.552581 306.325994,66.5523657 L240.753769,142.361695 C233.574329,150.636152 231.181182,151.018786 222.087224,145.087961 C208.589875,136.191724 208.206972,135.091652 213.136854,119.834128 L241.854617,30.2499802 C242.476835,28.336811 243.242642,26.4236418 244.152038,23.9843511 L117.650293,23.9843511 C112.036184,24.6636137 106.717365,21.3067255 104.918752,15.9490405 C103.435001,12.2661898 101.329031,8.82248524 99.7495545,5.18746378 C98.1700775,1.55244231 99.0316104,0.404540794 102.860645,0.117565415 L393.58013,0.117565415 C399.621872,-0.715243472 405.37727,2.95022612 407.173204,8.77465601 C408.321915,11.7878975 410.044981,14.6098221 411.433006,17.5274051 C413.77829,22.5973034 412.96462,23.9365219 407.556108,24.0800096 L257.745112,24.0800096 L257.505798,25.2279111 Z" id="Shape"></path>
                <path d="M37.2386661,103.027437 L50.8703272,91.2535879 C61.0103698,82.4471316 70.9112605,73.257786 81.3861159,64.8820804 C87.4662696,59.9563563 92.1225384,53.4961686 94.8742858,46.1683609 C97.6962788,39.1806293 100.757424,38.3669893 107.118866,42.5309115 C119.363445,50.6194501 119.88958,52.773203 115.250032,66.4614991 C110.036519,81.9685199 105.25348,97.6191242 100.27912,113.221867 C100.039968,113.987646 99.9443071,114.849147 99.5138336,116.907178 L115.202201,99.7250159 L162.793439,47.0777232 C170.063658,39.0370458 176.233779,38.4148505 186.086839,43.0573845 C194.706466,46.4844499 199.946451,55.2822938 198.857553,64.499191 C198.235758,86.5153315 198.187928,108.531472 198.044437,130.547613 C198.289468,135.706365 195.452591,140.519 190.822048,142.800074 C186.517313,145.145271 182.308238,147.586191 178.099164,150.027111 C174.385323,152.287735 169.812443,152.626025 165.806754,150.936473 C149.066117,144.618798 147.248563,141.84285 148.20517,123.176992 C148.444322,118.390874 150.357538,116.907178 155.140577,118.678041 C159.923616,120.448905 163.271743,122.076185 168.006952,124.038493 L168.006952,61.8189651 C167.098174,62.6804663 166.189397,63.3983839 165.424111,64.3077462 L95.3047593,143.757297 C88.7041655,151.22364 85.7386814,151.702252 77.6553455,146.150356 C74.9768437,144.28377 72.3461722,142.417184 69.7633312,140.454876 C65.9371795,138.079889 64.2840664,133.356516 65.7934088,129.111777 C68.1849283,121.501851 70.5764478,113.987646 73.30278,106.473442 C73.9344994,104.958508 74.2439961,103.328529 74.2115574,101.687324 L58.0927161,116.620011 L25.6158814,146.772551 C21.1676552,150.888612 19.924065,150.984335 14.8062133,147.586191 C11.7450684,145.528161 8.68392346,143.47013 5.62277851,141.364238 C-0.260359428,137.3439 -1.12130644,135.094424 1.17455226,128.298137 C6.86636865,111.355281 12.7016762,94.5081478 18.441323,77.5652918 C19.7805739,73.6885366 22.6025669,69.2374473 21.6459591,65.9828874 C20.6893513,62.7283275 15.6671604,61.1967699 12.4625242,58.8994335 C11.5059165,58.229377 10.5014783,57.5593205 9.54487047,56.8414029 C7.10552059,54.9748171 6.81853826,52.6296195 9.54487047,51.0502007 C15.7030874,47.1126564 22.0919628,43.5485659 28.6770264,40.3771587 C31.3641,39.7588185 34.1856248,40.1865974 36.5690407,41.573688 C40.2135796,43.7590042 43.6836685,46.2232329 46.9482353,48.944309 C49.2429608,49.9403357 50.998633,51.8759632 51.7676123,54.2576694 C52.5365917,56.6393756 52.2445644,59.2369934 50.965988,61.3882146 C46.7090833,73.6406754 42.3565178,85.8931363 38.0517828,98.1455971 C37.5256485,99.6292935 37.0473446,101.11299 36.5212103,102.596686 L37.2386661,103.027437 Z" id="Shape"></path>
            </g>
        </g>
    </g>
</svg>